<svg width="500" height="500" viewBox="71.3 107.169 824.618 848.935" xmlns="http://www.w3.org/2000/svg"><defs><clipPath id="a"><path fill="currentColor" d="M895.5 646.5Q903 793 776 876t-275 80q-148-3-248-103.5T99.5 626Q46 500 94 370t168.5-180.5Q383 139 508 114t249.5 41.5Q882 222 885 361t10.5 285.5Z"/></clipPath><pattern id="b" patternUnits="userSpaceOnUse" width="27.5" height="27.5" viewBox="0 0 100 100" fill="#282636" patternTransform="rotate(45 0 0)"><path d="M0 0v100" stroke="#282636" stroke-width="20"/></pattern></defs><g clip-path="url(#a)"><path fill="url(#b)" d="M895.5 646.5Q903 793 776 876t-275 80q-148-3-248-103.5T99.5 626Q46 500 94 370t168.5-180.5Q383 139 508 114t249.5 41.5Q882 222 885 361t10.5 285.5Z"/></g></svg>