<svg id="_1" data-name=" 1" xmlns="http://www.w3.org/2000/svg" viewBox="0 0 355.51 200.42"><defs><style>.cls-1{fill:#66643b;}.cls-2{fill:#515032;}.cls-3{fill:#9c6f43;}.cls-4{fill:#82664b;}.cls-5{fill:#417f73;}.cls-6{fill:#ffe2bd;}.cls-7{fill:#eae6e4;}.cls-8{fill:#2e2e47;}.cls-9{fill:#82a7af;}.cls-10{fill:#774237;}.cls-11{fill:#ffc0dd;}.cls-12{fill:#ffd3b5;}.cls-13{fill:#fff;}.cls-14{fill:#ffc97d;}.cls-15{fill:#cc8b70;}.cls-16{fill:#c96b59;}.cls-17{fill:#fa634b;}.cls-18{fill:#ffea8f;}.cls-19{fill:#ffa982;}.cls-20{fill:#f2836d;}.cls-21{fill:#4ba096;}.cls-22{fill:#8dbec6;}.cls-23{fill:#393951;}.cls-24{fill:#3b8d99;}</style></defs><path class="cls-1" d="M295.84,105.65s1.15-31.78.5-37.51-1.73-11.41-.54-17.47,6.35-15.41,6.35-15.41a168.3,168.3,0,0,1,4.53,20.29c1.12,8.56-3.12,21.28-3.64,27.24s-3.19,22.86-3.19,22.86Z"/><path class="cls-2" d="M295.32,54.64a15.84,15.84,0,0,1,4,.21,10,10,0,0,0,4,.29,9.81,9.81,0,0,1,3.35.59,1.1,1.1,0,0,1,0-.18c-.16-1.21-.36-2.47-.6-3.76a10.14,10.14,0,0,1-3.26,0c-2.05-.35-1.29-.47-4.8-1a7.09,7.09,0,0,0-2.23-.05A29.11,29.11,0,0,0,295.32,54.64Z"/><path class="cls-2" d="M302.35,65.44c-1.58,0-1.7-.7-3.51-1.17a7.77,7.77,0,0,0-3-.11c.16,1.32.33,2.65.49,4,0,.2,0,.44.06.71.76.18,1.77.44,2.67.75,1.7.58,1.35,0,2.9-.06a9.36,9.36,0,0,1,3.4,1.11c.33-1.64.64-3.33.9-5C304.91,65.55,303.22,65.44,302.35,65.44Z"/><path class="cls-2" d="M302.59,81.48s-1.88-.58-3.28-1.11a8.38,8.38,0,0,0-2.8-.31c0,2-.07,4.09-.11,6.19,1.11,0,2.79-.13,3.76-.2a4.9,4.9,0,0,1,2.44.68c.2-1.55.35-2.91.44-3.94,0-.36.08-.75.14-1.15Z"/><path class="cls-2" d="M301.69,93.45c-.27-.09-.6-.2-1-.31-1-.29-2.57-.47-3.1-.7a4.63,4.63,0,0,0-1.35-.18c-.06,2.09-.12,4.07-.17,5.84a20.26,20.26,0,0,0,2.75.13,3.19,3.19,0,0,1,2.05.63C301.15,97.18,301.42,95.32,301.69,93.45Z"/><path class="cls-1" d="M289.64,105.65S286.45,91.42,287,80.86s1.64-28.61,1.64-28.61,5.31,2.28,8.2,31.57l-.32,21.83Z"/><path class="cls-2" d="M289.9,96.3a2.19,2.19,0,0,0-1.83.66c.14,1,.29,1.85.43,2.69.72-.12,1.74-.27,2.74-.37a31.56,31.56,0,0,1,5.34.38l.05-3.53-2.87.17C292.07,96.41,292,96.3,289.9,96.3Z"/><path class="cls-2" d="M295.28,86.3c-.41,0-4.9.92-6.75,1.22a2.37,2.37,0,0,0-1.43.82c.09,1.17.19,2.33.31,3.47l2.08-.9,7.22-.3.06-4.57A8.23,8.23,0,0,1,295.28,86.3Z"/><path class="cls-2" d="M291.17,78.21c1.22-.53,1.43-.88,2.87-.94a10.77,10.77,0,0,1,2,.16c-.09-.72-.19-1.42-.28-2.1l-.14-.07c-.8-.42-1.17-.63-2.6-1.29s-1,.49-2,1.6-1.58.06-2.52-.23a2.39,2.39,0,0,0-1.33.21q-.08,1.44-.15,2.79A12.1,12.1,0,0,0,291.17,78.21Z"/><path class="cls-2" d="M291.93,67.61a6.62,6.62,0,0,1,2.73.69c-.27-1.44-.55-2.76-.83-4a15,15,0,0,1-1.91.1A16.36,16.36,0,0,0,289.2,64a4.51,4.51,0,0,0-1.36,1c-.07,1.15-.14,2.34-.21,3.53l1.61-.14C289.76,68.31,291,67.78,291.93,67.61Z"/><path class="cls-1" d="M307.27,105.65s3.92-11.54,4.49-20.09,1.34-23.18,1.34-23.18-4.51,1.84-9.59,25.58l-1.79,17.69Z"/><path class="cls-2" d="M307.94,98.07a1.56,1.56,0,0,1,1.41.54c-.2.76-.4,1.49-.59,2.17-.58-.09-1.39-.21-2.19-.29a27.1,27.1,0,0,0-4.36.3l.29-2.85c.7,0,1.6.08,2.31.13C306.16,98.16,306.23,98.07,307.94,98.07Z"/><path class="cls-2" d="M304.51,90c.34,0,3.89.75,5.36,1a1.64,1.64,0,0,1,1.08.68c-.18.94-.38,1.88-.58,2.8l-1.6-.73L303,93.46l.37-3.7A6.44,6.44,0,0,0,304.51,90Z"/><path class="cls-2" d="M308.6,83.41a4.41,4.41,0,0,0-2.24-.76,9.4,9.4,0,0,0-1.67.13c.14-.59.28-1.15.42-1.7l.12-.06c.68-.34,1-.51,2.23-1s.77.4,1.45,1.3,1.28,0,2.07-.19a1.9,1.9,0,0,1,1,.18c0,.77-.09,1.53-.14,2.26A9.55,9.55,0,0,1,308.6,83.41Z"/><path class="cls-2" d="M309,74.82a5.88,5.88,0,0,0-2.28.56c.36-1.17.71-2.23,1.05-3.2a10.6,10.6,0,0,0,1.53.08,13.74,13.74,0,0,1,2.25-.38,3.29,3.29,0,0,1,1,.81c-.06.94-.11,1.9-.17,2.86l-1.28-.11C310.67,75.39,309.76,75,309,74.82Z"/><path class="cls-3" d="M288.15,104.51h20.38s2.23,11-3.74,17.13H293S286.42,117.54,288.15,104.51Z"/><path class="cls-4" d="M290.66,162.53s3.88,10.43,5.53,12c.7.66,2.26,1,3.81,1.19a3.73,3.73,0,0,0,4.17-3.7v-7.81Z"/><path class="cls-4" d="M327.34,169.61s3.88,10.44,5.53,12a7.48,7.48,0,0,0,3.81,1.19,3.73,3.73,0,0,0,4.17-3.7v-7.81Z"/><path class="cls-5" d="M331.55,130.78c-6.77-5.43-32.89-8.59-32.89-8.59s-3.12-42.42-12-49.19-22.64-6.25-22.64-6.25H7.73A5.38,5.38,0,0,0,3,74.63l31,59,28,13.62c8.74,4.26,9.49,26.48,19.22,26.36l246.12-2.2c6-.08,10.44-25.32,9.17-31.17C335.67,136.58,334.21,132.91,331.55,130.78Z"/><path class="cls-4" d="M241.46,66.74s-.25,2.91-.72,2.85-2.67-2.68-2.81-3.12S240,65.81,241.46,66.74Z"/><path class="cls-5" d="M344.9,112.44c-2.86-1-27.15-5.92-46.25-8.55-1.83-12.38-5-27.13-9.89-30.89-4.66-3.56-10.69-5.11-15.35-5.77a5.38,5.38,0,0,0-6,6.32l9.19,49.34h0l1.51,8.12a15.32,15.32,0,0,0,.81,2.78l6.52,30.69s40.16,9,44.38,9h11.54c3.4,0,10.82-2.86,10.62-6.26C351,151.74,351.35,114.65,344.9,112.44Z"/><path class="cls-4" d="M241.24,77.72c2,3.75-.79,10.13-4.14,17.23-4.69,9.9-11.15,20.37-13,19.7-.94-.34-2.52-1.65-2.43-5,.26-9.46,4.75-21.9,4.75-21.9a28.28,28.28,0,0,0-3-2c3.8-6.8,9.73-11.44,10.7-13.7C237.73,74.24,240.24,75.8,241.24,77.72Z"/><path class="cls-6" d="M198.24,62.24c8.2-2.94,13.09-2.24,13.09-2.24a17.6,17.6,0,0,1,6.92,1.92c1.65.77,3.8,3,5.69,3.89,3.86,1.92,8,4.11,11.46,6.28-1,2.26-5,12.37-12.24,18.67-3.25-.6-16.31-7-23.51-15.66C191.59,65.44,190.05,65.18,198.24,62.24Z"/><path class="cls-7" d="M226.46,114.79s2.5,6.4,3.37,7.53,3,2.28,3,4-4.54,1.68-7.12-1.08-1.62-3.87-3.94-5.11a6.56,6.56,0,0,1-3.61-4.64c-.33-1.68,2-5,2.74-7.38.89-3,1.19-6.38,2.26-4.9,1.68,2.33,8.64,2,7.14,4.37S226.46,114.79,226.46,114.79Z"/><path class="cls-6" d="M200.85,61.39s14.48,19.1,15.56,21.1,1,8.36.63,9.19c-1.16,2.33-10.88,6.6-16.19,6s-8.39-4-9.77-5.06-10-21.39-9.33-25.92S195.69,57.41,200.85,61.39Z"/><path class="cls-8" d="M206.17,82.91s4.44-1.12,6.86,0,3.83,5.26,3.87,7.1-2.75,4-4.92,4.49-11.37,2.56-12.87,2.12-1.09-7.57-.57-9.2S206.17,82.91,206.17,82.91Z"/><path class="cls-8" d="M229,84.27a.11.11,0,0,1-.1-.06.13.13,0,0,1,0-.16A18.3,18.3,0,0,1,234,82.11h.07a.12.12,0,0,1,.14,0,.11.11,0,0,1,0,.16s0,0-.14,0a17.26,17.26,0,0,0-5,1.91Z"/><path class="cls-9" d="M215.73,23.93c.6-3.6-4.91-8-9.67-7.93-6.58.06-12.86,2.63-19.49,10.83C176,39.92,175,60.9,178,66.93c.94,1.89,4.16,8.24,6,7.18,5.59-3.24,15.51-9.84,18.5-10.5,7.67-1.68,13.88-2.33,13.88-2.33s-1.87-18.87-1.85-25.19A113.4,113.4,0,0,1,215.73,23.93Z"/><path class="cls-8" d="M194.27,28.93S185,48.38,184,52.08s-5.7,16.6-5.7,16.6l-6.26-5.82s8.11-19.13,11.1-23.38S194.27,28.93,194.27,28.93Z"/><path class="cls-8" d="M101.51,66.75s.29,14.6-.37,24,17.32,32.27,18.07,34.71,9.5,39.56,13.1,41.72,11.48-.22,12,0-2.12-44.49.25-47.55,10.13-.58,12.44,2.61,17.08,38.71,20.85,40.34,15.67-1.52,15-4.46-8.57-14.46-11-19.95-16.71-24.28-27.2-31.35-25.46-16.07-28.34-22c-1.55-3.21-12.54-18-12.54-18Z"/><path class="cls-4" d="M199.73,86.1s6.19-5.1,11.62-2.92,2.76,37.69,1.81,39.5-4.77,2.83-6,1S193.62,88.79,199.73,86.1Z"/><path class="cls-7" d="M214.1,118.09s-.49,6.42-.24,7.1,4.31,8.35,4.26,9.43a5.56,5.56,0,0,1-2.52,4.65c-2.33,1.2-3.36.21-4.4-1.73s-4.82-9.19-4.9-11.31-.69-4-1.1-7.33C204.87,116.21,212.87,114.55,214.1,118.09Z"/><path class="cls-9" d="M195.56,18.79a10.16,10.16,0,0,0-4.21,2.11c-3.62,3-13.1,11-17.94,16.8-6.06,7.21-12.28,27.2-10.15,30.11s8.66,4,11.17,2.19,8-22.28,8-22.28S195.37,28.06,196.87,24C198.12,20.54,199.28,17.94,195.56,18.79Z"/><path class="cls-10" d="M115,53.23l.2-.88s.23-.59,2.14-.75,9.54-1.12,9.84,1.7-4.06,2.77-5.75,2.53S115.93,55.57,115,53.23Z"/><path class="cls-11" d="M181.75,76.31a29.35,29.35,0,0,1-5.24-5.09c-1.16-1.34-6.23-15.34-15.14-18C153,50.6,149.46,57.3,149.46,57.3c-4.15,5.18,3.25,25.34,5.38,30.12,4-1,13.78-3.68,19-6A32.55,32.55,0,0,0,181.75,76.31Z"/><path class="cls-8" d="M205.44,160.26s5.56-9.41,4.3-11-3.05-.08-5.77,4.58S202.57,161.91,205.44,160.26Z"/><path class="cls-12" d="M202.17,144.6a18.8,18.8,0,0,0,3.37,2.82c.86.37,2.16.21,3.28,1.82s-3.28,9.53-5.12,10.88-4.57-3.65-4.06-6.14c.8-3.8-1-5.56-1-5.56Z"/><path class="cls-8" d="M199,155s.11-3.64,4.37-2.08,3,5.59,2.46,6.68-6.23,12.76-9.22,9.71S199,155,199,155Z"/><path class="cls-8" d="M178.33,114.16c-3.31-6-23-36.29-24.09-29.94,0,0-.39,9.15,0,13.39,1.14,12.1,3.75,18.32,5.5,21.48C163.53,119.25,173.09,119.13,178.33,114.16Z"/><path class="cls-12" d="M204,147.2c-.86-2.25-24.12-29.59-25.19-32.2a7.51,7.51,0,0,0-.43-.84c-5.24,5-14.8,5.09-18.59,4.93.23.41.45.77.64,1.09,7.68,12.38,34.29,30.21,40.07,30.09S204.81,149.45,204,147.2Z"/><path class="cls-8" d="M177.86,119.13c4.12.73,8.62,2.52,16.17,0,2.53-3.72,7.88-18.11,2-27.43C191.8,85,184.58,78.92,181.75,76.31a32.55,32.55,0,0,1-7.87,5.12c-5.26,2.31-15,4.95-19,6,.08.2.16.37.23.51,2.72,5.64,10,13.27,10,13.27s1.29,7.59,2.67,14.75C171.81,115.17,174.41,118.51,177.86,119.13Z"/><path class="cls-12" d="M221.07,132.2c-1.09-1.79-13.37-7.73-22-10.86a30.2,30.2,0,0,0-8.34-1.73,9.29,9.29,0,0,1,.86-2c-2.37-.48-7.13-1.41-11.25-2.14a39.05,39.05,0,0,0-12.64.51c.27,1.45.56,2.88.83,4.23,1.19,5.85,7.68,16,17.83,16.27,7.62.2,25.39,1.23,32.53-.41A3,3,0,0,0,221.07,132.2Z"/><path class="cls-13" d="M195.75,115.93h-.05a81,81,0,0,0-9-2.8c-3.9-.87-13.93-1.36-14-1.37a.11.11,0,0,1-.11-.12.12.12,0,0,1,.12-.12c.1,0,10.15.5,14.07,1.38a86.35,86.35,0,0,1,9,2.8.12.12,0,0,1,0,.23Z"/><path class="cls-8" d="M183.63,120.85a.13.13,0,0,1-.12-.09.13.13,0,0,1,.09-.15,39.56,39.56,0,0,1,7.12-1.12.12.12,0,1,1,0,.24,38.38,38.38,0,0,0-7.07,1.11Z"/><path class="cls-13" d="M170.34,109.16a.12.12,0,0,1-.12-.12s0-3.69,0-7.48S169.65,93,169,92c-1.19-2-4.64-2.69-6.12-2.73-.59,0-.81.06-.85.1s.07.1.3.21c.69.35,5.83,3,6,3.38a.17.17,0,0,1,0,.12c-.07.08-.14.17-3.63-.21-1.69-.18-3.39-.39-3.4-.39a.12.12,0,0,1-.11-.13.11.11,0,0,1,.13-.1c2.24.27,5.75.66,6.65.67-.72-.51-3.66-2.12-5.69-3.13-.31-.15-.45-.3-.43-.45s.28-.25.36-.26c1.22-.26,5.65.49,7.05,2.8.63,1,1.22,5.74,1.21,9.67V109a.11.11,0,0,1-.11.12Zm-2.23-16.1Z"/><path class="cls-14" d="M130.68,169s-.56,5.49-.73,6.13-4.36,8.92-4,9.83,2.78,2.68,3.71,3c2.21.88,3.05-.12,3.82-2s3.52-8.74,3.39-10.66-.91-3.34-.06-5.65S131.47,165.66,130.68,169Z"/><path class="cls-14" d="M195.57,148.49s4.13,4.58,4.64,5c.93.79,6.39-1.65,8.93-1.5s2.19,2,.57,4.05-6.08,2.74-7.15,3.4-4.45,4.26-6.15,2.23-1.68-3.2-2.35-4.6-4.58-3.09-4.1-4.22S195.17,148.05,195.57,148.49Z"/><path class="cls-7" d="M112.62,104.63a17.92,17.92,0,0,0,.46,2.76c.52,2,2,3.08,3.22,4.8.92,1.26,2.78,3,3.14,4.19,1.51,5.09,3.83,11.08,5.88,11.65,3.73,1,14.64,1.23,14.83.76s1.29-12.31,5-13.67c5.63-2,18.94,9.6,18.94,9.6s12.47,23,23,32.75c3.18,2.94,11-5.89,11.29-6.49,1-2.62-22.17-35.46-23.26-37.87-2-4.49-24.54-13.49-24.54-13.49s-12.92-.33-17.19.18C128.11,100.44,112.62,104.63,112.62,104.63Z"/><path class="cls-8" d="M141.22,105.8a.13.13,0,0,1-.12-.11.11.11,0,0,1,.11-.12c.4,0,1.5-.16,1.79-.58a.42.42,0,0,0,0-.38c-.27-.77-3-3.27-4.45-4.49a.12.12,0,0,1,.16-.18c.17.14,4.16,3.57,4.51,4.59a.62.62,0,0,1-.06.59c-.41.6-1.9.68-2,.68Z"/><path class="cls-10" d="M131.74,56.3a169.93,169.93,0,0,1,13.71,12.86,87.82,87.82,0,0,1,8,9.81c6.15,9.64,13.51,21.28,11.5,22.85s-7.33,5.51-9.45,2.75S144.42,87,141.3,81.92c-2.51-4.09-5.48-13.42-7.45-17.68A23,23,0,0,1,131.74,56.3Z"/><path class="cls-7" d="M125.55,116.38c-3.72,3.46-1.9,7.13-2.18,11.52s-.14,40.2,2.19,42.35,13.18.28,14.8-1.31-.16-46.08-.4-49.25S129.2,113,125.55,116.38Z"/><path class="cls-10" d="M112.09,61.48s2.54-9,15.23-7.15S140.9,80.49,140.9,80.49s10.62,17,10.26,19.11-12.8.46-16.13,1.26c-6.82,1.64-20.41,4.74-23.13,4.4S106.58,73.67,112.09,61.48Z"/><path class="cls-15" d="M119.07,50a24.83,24.83,0,0,1,0,4.84c-.29,1.41,1.45,1.62,2.75,1.62s3.89-.09,4.2-.62-2.14-3-2.49-4S119.46,48.88,119.07,50Z"/><path class="cls-15" d="M125.49,42.31s.53-.36.85,0,.33,2.49-.13,2.56S125,42.87,125.49,42.31Z"/><path class="cls-8" d="M114.69,40.79s-.26,6,2,6.75.84-5.39.45-6S114.69,40.79,114.69,40.79Z"/><path class="cls-8" d="M125.13,39.66a3.41,3.41,0,0,1,.79,1.43c.25.91.34,2.3-.28,2.51s-2-2.89-1.75-3.48S125.13,39.66,125.13,39.66Z"/><path class="cls-15" d="M115.38,43.69a5.32,5.32,0,0,0,1-.34.44.44,0,0,0,.13-.21,1.34,1.34,0,0,0,0-.47,4.42,4.42,0,0,1,1-3.86c1.52-1.5,5.43-1.5,6.71.17a11.74,11.74,0,0,1,1.8,4.87c.12.51.74,3,.84,3.95.17,1.66-.17,4-3.52,4.43a6,6,0,0,1-6.1-2.7,8.53,8.53,0,0,1-.63-2.65,2.89,2.89,0,0,1-1.35-1.08C114.84,45.12,114.63,44,115.38,43.69Z"/><path class="cls-8" d="M123.15,46.66l-.28,0a.11.11,0,0,1-.11-.12.11.11,0,0,1,.13-.11c.55,0,1,0,1.07-.25a.33.33,0,0,0,0-.36l-.23-.31a3.43,3.43,0,0,1-.71-1.36c-.2-.73-.22-1.13-.06-1.36a.74.74,0,0,1,.57-.26l1.45-.15a.12.12,0,0,1,.13.1.12.12,0,0,1-.11.13s-.92.09-1.44.16c-.23,0-.35.07-.41.16s-.07.53.1,1.16a3.2,3.2,0,0,0,.67,1.28c.08.11.17.21.24.32a.59.59,0,0,1,0,.61A1.14,1.14,0,0,1,123.15,46.66Z"/><path class="cls-8" d="M119.44,43.37a.12.12,0,0,1-.1-.07.12.12,0,0,1,0-.16,3.86,3.86,0,0,1,1.51-.37.12.12,0,0,1,.11.13.13.13,0,0,1-.13.11,3.82,3.82,0,0,0-1.39.34Z"/><path class="cls-8" d="M119.68,44.78a.11.11,0,0,1-.08,0,.1.1,0,0,1,0-.16,1.48,1.48,0,0,1,1.08-.64,1,1,0,0,1,.74.29.12.12,0,1,1-.17.16h0a.8.8,0,0,0-.57-.21,1.28,1.28,0,0,0-.9.55A.12.12,0,0,1,119.68,44.78Z"/><path class="cls-8" d="M123.72,44.1a.09.09,0,0,1-.08,0,.11.11,0,0,1,0-.16c.89-.85,1.51-.25,1.52-.25a.12.12,0,0,1-.17.17s-.47-.44-1.18.25A.16.16,0,0,1,123.72,44.1Z"/><path class="cls-8" d="M115.75,43.57a1.1,1.1,0,0,1,.75.32c.4.5,1,0,1.14-.3.27-.65,0-2.47,1-2.78s2.08.68,4.73.21a3.81,3.81,0,0,0,3.2-2.32c.4-1-1.2-4.26-3.23-3.54-3.19,1.14-5.12-.28-6,.69a2.46,2.46,0,0,0-.76,2,2.5,2.5,0,0,0-2.3,1.56C113.5,41.06,115.75,43.57,115.75,43.57Z"/><path class="cls-8" d="M116.73,38h0a.12.12,0,0,1-.15-.08c0-.07-.52-1.72.24-2.38a2.09,2.09,0,0,1,1.29-.64.12.12,0,0,1,.12.13.11.11,0,0,1-.12.11,2,2,0,0,0-1.13.58c-.64.57-.17,2.12-.17,2.13A.12.12,0,0,1,116.73,38Z"/><path class="cls-8" d="M116.25,38.14h0a4.43,4.43,0,0,0-2.07.69.12.12,0,0,1-.17,0,.13.13,0,0,1,0-.17,4.69,4.69,0,0,1,2.2-.72.12.12,0,0,1,0,.24Z"/><path class="cls-8" d="M116.73,48.24A3.06,3.06,0,0,0,117,47c0-.85-.33-3-.28-3.14s.32-.75.67-.39c0,0,.86,2.91,2,3.64s2.54-.5,4.14-.64c.73-.07,1.54.32,1.86,0s.78-1.72.94-1.28c0,0,.51,2.51.51,2.54.17,1.67-.25,4-3.6,4.43a6,6,0,0,1-6.1-2.7A6.31,6.31,0,0,1,116.73,48.24Z"/><path class="cls-16" d="M119.81,46.4c.08.35.58.53,1.12.41s.92-.5.85-.85-.58-.53-1.13-.41S119.73,46.05,119.81,46.4Z"/><path class="cls-16" d="M124.31,45.57c.07.32.54.48,1.06.37s.88-.47.81-.78-.55-.49-1.07-.37S124.24,45.25,124.31,45.57Z"/><path class="cls-8" d="M120.89,44.24s-.18-.15-.42.1-.16,1,.42.89S121.26,44.38,120.89,44.24Z"/><path class="cls-8" d="M124.82,43.81s-.17-.13-.42.09-.16.93.42.81S125.2,43.94,124.82,43.81Z"/><path class="cls-13" d="M122.09,48.4s.66-1.26,1.43-1.34a1.77,1.77,0,0,1,1.85,1Z"/><path class="cls-10" d="M123.78,55.05a43.45,43.45,0,0,1-5.55-1.86c-1.32-.71-1.55-1.28-2.61-1.06s-2.46,3.64-2.39,4.49S116.89,58.13,120,58s4.38-.57,5.6-1.2a3.51,3.51,0,0,0,2-2.71c0-.95-1.61-1.4-2.22-1.14S123.78,55.05,123.78,55.05Z"/><path class="cls-13" d="M140.59,52.69c-6.08,0-11,.57-11,1.27v0c.2.68,5,1.22,11,1.22s10.82-.54,11-1.22v0C151.61,53.26,146.68,52.69,140.59,52.69Z"/><path class="cls-13" d="M151.54,53.43a3.21,3.21,0,0,0-.71-.27,18.33,18.33,0,0,0-2.41-.41,82.93,82.93,0,0,0-15.65,0,18.33,18.33,0,0,0-2.41.41,3.33,3.33,0,0,0-.72.27.62.62,0,0,0-.38.53h.31c0-.7,4.94-1.27,11-1.27s11,.57,11,1.27h.32A.62.62,0,0,0,151.54,53.43Z"/><path class="cls-14" d="M130.37,54.43a.93.93,0,0,1,.73-1.13,1.91,1.91,0,0,1,1.51,0,1.9,1.9,0,0,1,1.12-1.56c1-.33,1.62,1.11,1.62,1.11s1.18-.6,1.72-.09a3.65,3.65,0,0,1,.79,1.32,3.42,3.42,0,0,1,2.73.2c1.52.73,1.23,1.83-1.66,1.88S131.38,57,130.37,54.43Z"/><path class="cls-14" d="M140.37,54.74s-1-1.26-.56-2,1.42-.32,1.42-.32-.09-.81,1.33-1.06a1.66,1.66,0,0,1,1.86,1.14,1.13,1.13,0,0,1,1.53.39l.65.92a1.93,1.93,0,0,1,1.66-.72,1.39,1.39,0,0,1,1.26,1,1.48,1.48,0,0,1,1.12,1C150.94,55.9,142.67,57.75,140.37,54.74Z"/><path class="cls-17" d="M140.59,55.22c-6,0-10.81-.54-11-1.22l3.2,19.41a1.74,1.74,0,0,0,1,1.27c1,.55,2.94,1.19,6.79,1.19s5.81-.65,6.79-1.2a1.74,1.74,0,0,0,1-1.27l3.2-19.4C151.41,54.68,146.55,55.22,140.59,55.22Z"/><path class="cls-13" d="M151.61,54v0Z"/><path class="cls-13" d="M148,54.89c-.63.07-1.33.13-2.08.17L144.42,75.6h0l.27,0h.07l.25-.06h0l.26-.06h.06l.2,0h.05l.22-.06,0,0,.17,0h.05l.2-.07h0l.17-.06h0Z"/><path class="cls-13" d="M141.18,75.87l.44,0h0V55.21h-2.06V75.86h1.62Z"/><path class="cls-13" d="M135,55.05c-.75,0-1.45-.11-2.08-.18l1.68,20.2h0l.16.06h0l.2.07h0l.18.06h.05l.23.06h0l.22,0,.05,0,.26,0h0l.27.06h.07l.27,0h0Z"/><path class="cls-13" d="M129.58,54v0Z"/><path class="cls-13" d="M140.59,55.22c-6.08,0-11-.57-11-1.26h-.31a.62.62,0,0,0,.38.52,2.87,2.87,0,0,0,.72.27,16.79,16.79,0,0,0,2.41.41,72.44,72.44,0,0,0,7.82.37,72.5,72.5,0,0,0,7.83-.37,16.79,16.79,0,0,0,2.41-.41,2.78,2.78,0,0,0,.71-.27.62.62,0,0,0,.39-.52h-.32C151.61,54.65,146.68,55.22,140.59,55.22Z"/><path class="cls-15" d="M134.28,71.68c.59-.75,1.49-3.42,2.07-2.79s-.22,2.24.07,2.67,5.49-1.76,5.57-.91c.06.7-2.72,1.3-2.49,1.62s2.91-1.5,3.21-1.08-2.47,2.2-2.41,2.31,2.68-1.31,2.84-1-2.67,1.8-2.61,2,2.07-1.1,2.13-.6-3.83,2.23-4.35,2.53c-1,.58-4,1.71-5.23.88C130.92,75.86,133.93,72.13,134.28,71.68Z"/><path class="cls-14" d="M137.74,50s-.56.29,0,.7a1,1,0,0,0,1,.18s.94.44,1.3-.26a1.15,1.15,0,0,0-.34-1.3S137.89,47.78,137.74,50Z"/><path class="cls-14" d="M141.87,85.94s-.56.3,0,.71a1,1,0,0,0,1,.18s.94.44,1.29-.27a1.14,1.14,0,0,0-.33-1.3S142,83.73,141.87,85.94Z"/><path class="cls-14" d="M141.62,47s-1.46.87-.45,1.44,1.38-.19,1.38-.19.83.59,1.19,0a1.08,1.08,0,0,0,0-1.13,1.85,1.85,0,0,0-.48-1.5C142.64,45.15,140.87,45.06,141.62,47Z"/><path class="cls-14" d="M140.31,92.37s-1.46.87-.46,1.44,1.38-.2,1.38-.2.84.59,1.19,0a1.06,1.06,0,0,0,0-1.12,1.9,1.9,0,0,0-.47-1.51C141.33,90.51,139.55,90.42,140.31,92.37Z"/><path class="cls-14" d="M137.3,45.63s.68.86,1.36.44,0-1,0-1,.89.12.9-1-1.49-.64-1.49-.64-.31-1.56-2.15-.95-1.57,2.08-.6,2.81A2.08,2.08,0,0,0,137.3,45.63Z"/><path class="cls-8" d="M226,142.3s1-10.88-.84-11.77-2.79,1.23-3.24,6.6S224.15,145,226,142.3Z"/><path class="cls-12" d="M216.35,129.56a19.14,19.14,0,0,0,4.25,1.11c.94,0,2-.74,3.75.23s1.13,10,0,12-5.69-1.33-6.29-3.8c-.92-3.77-3.28-4.6-3.28-4.6Z"/><path class="cls-8" d="M217.9,140.33s-1.46-3.33,3-3.75,5.07,3.77,5.1,5-.16,14.2-4.16,12.73S217.9,140.33,217.9,140.33Z"/><path class="cls-18" d="M159.45,41.26a3.89,3.89,0,0,1,1.27,2.36c.24,1.57,1.48,4.94.12,7.6l-1.2.21-.12-1-.6,1.11s-3-.35-3.53-.48,2.15-8.43,2.06-9.77S158.7,40.7,159.45,41.26Z"/><path class="cls-12" d="M157.35,55.53c1.38-.3,1.83-1,1.88-1.56a8,8,0,0,1-2.41-2.83c-1.27-2.57-5.27-4.07-5.27-4.07s1.7,3,1.41,4.45a8.07,8.07,0,0,1-1.46,3.34C152.41,55.54,155.23,56,157.35,55.53Z"/><path class="cls-8" d="M156.82,51.14a5.59,5.59,0,0,0-.57-.89l-2.8-.44a6.09,6.09,0,0,0,1.9,1.33,7.72,7.72,0,0,0,1.62.31Z"/><path class="cls-12" d="M150.48,47.83s-.24.37-.91,0-1.31-2.06-1-2.57.88-.2,1-.26-.89-2.13-.59-3.62a4.33,4.33,0,0,1,3.39-3.58,5.23,5.23,0,0,1,4.5,1c1,.69,1.56,2.51,1.89,3.36a4.81,4.81,0,0,0,.91,1.48,4.76,4.76,0,0,1,1.1,3,3.71,3.71,0,0,1-3,3.51C155.73,50.85,152.16,50.84,150.48,47.83Z"/><path class="cls-8" d="M156.44,45.89a.58.58,0,0,1-.54-.31.13.13,0,0,1,0-.16.11.11,0,0,1,.16,0c.15.25.37.26,1,0,.23-.08.36-.16.37-.24s-.12-.3-.43-.58a4.69,4.69,0,0,1-1.1-1.81,1.53,1.53,0,0,1-.14-1.15.87.87,0,0,1,.61-.5,3.9,3.9,0,0,1,1.59-.33.11.11,0,0,1,.06.15.12.12,0,0,1-.15.07,4,4,0,0,0-1.42.33.64.64,0,0,0-.47.37,1.35,1.35,0,0,0,.13,1v0a4.65,4.65,0,0,0,1,1.72c.41.37.55.59.5.8s-.29.33-.52.41A2.56,2.56,0,0,1,156.44,45.89Z"/><path class="cls-8" d="M152.72,42.81a.11.11,0,0,1-.09,0,.11.11,0,0,1,0-.16,4,4,0,0,1,1.62-.9.12.12,0,1,1,.07.22,4,4,0,0,0-1.53.85A.11.11,0,0,1,152.72,42.81Z"/><path class="cls-13" d="M156.15,47.72a1.81,1.81,0,0,1,1.36-1.65c.74-.24,1.58.72,1.58.72Z"/><path class="cls-19" d="M154.71,45.15s-1.51.09-1.76.67,1.45.47,2.18.11S155.09,45.11,154.71,45.15Z"/><path class="cls-19" d="M159.27,43.59s-1.09.16-1.14.7,1.16.34,1.62,0S159.54,43.53,159.27,43.59Z"/><path class="cls-18" d="M155.24,40.15a15.32,15.32,0,0,1,5.48,3.47,2.88,2.88,0,0,0-.94-2.26C158.51,40.29,158.09,39.53,155.24,40.15Z"/><path class="cls-18" d="M155.39,40.11s-2.82,4.17-3,6.4a16.78,16.78,0,0,0,1.15,5.57l-3-.45-.41-1,.15,1.14s-2.09-.27-2.66-1.39.53-3.65.53-3.65A9.93,9.93,0,0,1,155.39,40.11Z"/><path class="cls-18" d="M160.17,41.76s-2-3.8-3.8-4.57a8.52,8.52,0,0,0-4.48-.11,4.73,4.73,0,0,0-3,.73c-1.33.94-1.92,7.4-2.52,8.92s.65,3.67,1.85,3.89,1.05-5.16,2.14-6.6a20.44,20.44,0,0,1,4.49-3.65,4.16,4.16,0,0,1,2-.21C157.34,40.25,160.17,41.76,160.17,41.76Z"/><path class="cls-8" d="M109.51,96.43c.44,3.88,1,6.86,1.72,8.14,3.79-.52,12.1-4.12,15.45-8.32,3.71-4.66,7.88-13.83,7.88-13.83s-10.25,8.34-14.91,11.15C116.4,95.53,111.93,96.2,109.51,96.43Z"/><path class="cls-8" d="M154.55,43.62a.45.45,0,0,1,.53.23.89.89,0,0,1,.11.61c-.13.35-.56.27-.71.18s-.18-.69-.17-.78S154.39,43.67,154.55,43.62Z"/><path class="cls-8" d="M153.89,44.08h0a.13.13,0,0,1-.11-.12.76.76,0,0,1,.59-.6c.58-.19.76,0,.81.07a.12.12,0,0,1,0,.16.11.11,0,0,1-.16,0s-.1-.12-.53,0S154,44,154,44A.13.13,0,0,1,153.89,44.08Z"/><path class="cls-8" d="M157.55,42.6a.45.45,0,0,1,.53.23.88.88,0,0,1,.11.61c-.13.35-.56.27-.71.18s-.18-.69-.17-.78S157.39,42.65,157.55,42.6Z"/><path class="cls-8" d="M156.93,43.07h0a.11.11,0,0,1-.11-.12s0-.41.59-.59.75,0,.8.07a.12.12,0,0,1-.2.12s-.09-.11-.53,0-.42.38-.43.39A.1.1,0,0,1,156.93,43.07Z"/><path class="cls-8" d="M158.5,43.6h0a.11.11,0,0,1-.09-.14.75.75,0,0,0,0-.35.12.12,0,0,1,.06-.15.12.12,0,0,1,.16.06,1,1,0,0,1,.06.49A.13.13,0,0,1,158.5,43.6Z"/><path class="cls-8" d="M154.4,45h0a.81.81,0,0,1-.55-.29.11.11,0,0,1,0-.17.12.12,0,0,1,.17,0,.6.6,0,0,0,.38.2.12.12,0,0,1,.11.12A.12.12,0,0,1,154.4,45Z"/><path class="cls-11" d="M161.37,53.17l8.54,20s-17.73,1.57-19.62,3.09c-1.13.91-1.47,6.07,2.92,8.43,3,1.59,9.72,1.08,13.75.86,14.79-.78,15.36-9.19,14.79-13.46S171.37,53.4,161.37,53.17Z"/><path class="cls-10" d="M113.23,59.2S95.46,84.7,102.06,95.13s18.21,2.9,22.65-1.38c5.12-4.93,11.6-12.26,11.21-14.92S133,72.51,130,71.89s-14.09,9.31-14.09,9.31S117.5,55,113.23,59.2Z"/><path class="cls-8" d="M106.59,92.48h-.07a.34.34,0,0,1-.25-.2c-.09-.28.21-.7.73-1.37a4.66,4.66,0,0,0,.67-1A28.09,28.09,0,0,1,111,86.35a44.6,44.6,0,0,0,4.82-5.21,5.79,5.79,0,0,0,.36-2.73,28.61,28.61,0,0,1,.12-3.6C116.65,71.26,116,62,116,61.9a.12.12,0,0,1,.11-.13.12.12,0,0,1,.12.11c0,.1.66,9.39.3,12.95a28.61,28.61,0,0,0-.13,3.58,5.79,5.79,0,0,1-.38,2.84c-.39.8-2.77,3.17-4.86,5.27A33.6,33.6,0,0,0,107.9,90a4.76,4.76,0,0,1-.72,1.08c-.31.4-.75,1-.68,1.14,0,0,0,0,.07,0,.47.12,2.88-2.51,4.18-3.92.53-.58,1-1.08,1.32-1.41,1.28-1.29,3.34-3.67,3.36-3.69a.1.1,0,0,1,.16,0,.11.11,0,0,1,0,.16s-2.09,2.41-3.37,3.7c-.33.33-.78.83-1.32,1.41-.81.88-1.74,1.89-2.55,2.68C107.25,92.26,106.82,92.48,106.59,92.48Z"/><path class="cls-8" d="M119.44,78.33a.14.14,0,0,1-.1,0,.14.14,0,0,1,0-.17c.08,0,7.44-5.1,8.75-6a3,3,0,0,1,3.43,0,15.49,15.49,0,0,0,1.3,1.13.12.12,0,0,1,0,.17.12.12,0,0,1-.17,0,17.34,17.34,0,0,1-1.32-1.16,2.8,2.8,0,0,0-3.13,0c-1.31.85-8.67,5.9-8.74,6Z"/><path class="cls-12" d="M150.29,77.42a15.51,15.51,0,0,0-4.49-1.11c-.58,0-3.94,1.38-3.9,1.68s1.4.07,1.4.07a8.39,8.39,0,0,0-1.68.91c0,.17.61.2.61.2s-.48.31-.33.48a33.16,33.16,0,0,0,3.43-.33c.16.05-.7.24-.91.33s-.9.17-.88.46,2.61-.25,3.18-.25,1,.73,2.68.68c1.14,0,3,.38,3.07-1.63C152.54,77.12,150.29,77.42,150.29,77.42Z"/><path class="cls-8" d="M143.14,116.81a.13.13,0,0,1-.08,0,.12.12,0,0,1,0-.16,20.35,20.35,0,0,1,2.16-2,11.92,11.92,0,0,1,4.72-2.54,42.69,42.69,0,0,1,8.06-.53.12.12,0,0,1,.11.12.12.12,0,0,1-.12.12,41.67,41.67,0,0,0-8,.52c-3.31.67-6.72,4.44-6.75,4.47A.1.1,0,0,1,143.14,116.81Z"/><path class="cls-8" d="M157,114.29h0c-3.32-1.09-10.64-.17-10.71-.16a.13.13,0,0,1-.13-.11.12.12,0,0,1,.1-.13s1.88-.23,4.12-.33a20.4,20.4,0,0,1,6.7.51.11.11,0,0,1,.07.15A.11.11,0,0,1,157,114.29Z"/><path class="cls-8" d="M146.77,112.74a.11.11,0,0,1-.1-.06l-.19-.29a34.1,34.1,0,0,0-3.69-5.17A20,20,0,0,0,140,105c-.46-.33-.89-.64-1.33-1a19.36,19.36,0,0,1-2.66-3,.12.12,0,0,1,.2-.14,18.14,18.14,0,0,0,2.61,2.93c.43.35.86.66,1.31,1a19.09,19.09,0,0,1,2.79,2.29,33.79,33.79,0,0,1,3.74,5.21l.18.3a.12.12,0,0,1,0,.16Z"/><path class="cls-8" d="M123.39,126.28a.13.13,0,0,1-.12-.09,15.59,15.59,0,0,1-.37-4.66c.29-3.24,1.84-5.42,4.5-6.3a10.55,10.55,0,0,1,11.23,2.35,7.44,7.44,0,0,1,.91,1.14,3.28,3.28,0,0,0,.48.59.57.57,0,0,0,.06-.2.11.11,0,0,1,.13-.1.12.12,0,0,1,.1.14c0,.16-.08.36-.24.39s-.39-.21-.72-.69a8.31,8.31,0,0,0-.88-1.1,10.32,10.32,0,0,0-11-2.29c-2.6.86-4.06,2.91-4.34,6.09a14.92,14.92,0,0,0,.36,4.58.11.11,0,0,1-.08.14Z"/><path class="cls-8" d="M164.12,124.84h0a.12.12,0,0,1-.09-.14s.51-2.61,1.06-5.15c1.15-5.25,1.4-5.24,1.56-5.23s.2.24.21.35c.19,1.74-.6,6.48-.9,8.15l3.47-5.4a.13.13,0,0,1,.17,0,.13.13,0,0,1,0,.17l-3.79,5.9a.11.11,0,0,1-.14,0,.13.13,0,0,1-.07-.14c0-.06,1.23-6.61,1-8.67v0c-.45.85-1.66,6.52-2.36,10.11A.12.12,0,0,1,164.12,124.84Z"/><path class="cls-8" d="M175.93,78.56a17.79,17.79,0,0,1-2.87-1.83A51.56,51.56,0,0,0,168,73.52l-2.31.19c-2.09.17-4.95.4-5.66.48-1.12.12-7.52,1.3-8.36,1.52s-1.25.55-1.42.84a.12.12,0,0,1-.16,0,.11.11,0,0,1,0-.16,2.34,2.34,0,0,1,1.56-1c.87-.23,7.23-1.4,8.4-1.53.7-.07,3.57-.3,5.66-.47l2.31-.19c.3,0,1.86,1,5.24,3.25L175,77.71l-1.66-1.34c-1.23-1-2.51-2-3-2.49-.11-.1-.14-.2-.09-.28s.81-.09,4,.85a31.47,31.47,0,0,0,3.38.89c-.64-.5-2.92-1-4.76-1.45a11.41,11.41,0,0,1-3.18-1,46,46,0,0,1-2.41-6.15c-.63-1.76-1.23-3.43-1.65-4.48-1.1-2.77-2.3-6.51-2.31-6.55a.12.12,0,0,1,.08-.15.12.12,0,0,1,.15.08s1.2,3.77,2.3,6.53c.43,1.06,1,2.73,1.65,4.49a55.57,55.57,0,0,0,2.36,6.07,14.45,14.45,0,0,0,3.06.88c2,.46,4.3,1,4.92,1.54,0,0,.17.16.1.28s-.71.09-3.76-.8a29.06,29.06,0,0,0-3.68-1c.5.47,1.75,1.48,3,2.45,2.63,2.12,2.63,2.15,2.6,2.28l0,.06-.06,0Zm0-.24Zm1.77-2.89Z"/><path class="cls-13" d="M188.19,86.21h0a13.85,13.85,0,0,1-6.36-2,9,9,0,0,1-2-1.67.12.12,0,1,1,.19-.15s2.63,3.15,8.24,3.56a.12.12,0,0,1,0,.23Z"/><path class="cls-13" d="M190.79,116.81h0a.12.12,0,0,1-.1-.14,29.48,29.48,0,0,1,1.43-5.08c.77-1.68.56-3.84.4-5.41a25.1,25.1,0,0,0-.47-2.49,19.48,19.48,0,0,1-.71-5.33c.19-1.76.56-5-1.51-8A43.9,43.9,0,0,1,187,86a.11.11,0,0,1,0-.16.12.12,0,0,1,.16,0A51.18,51.18,0,0,0,190,90.28c2.12,3,1.75,6.32,1.55,8.1a19.34,19.34,0,0,0,.71,5.25c.21,1,.41,1.89.48,2.53.16,1.6.37,3.79-.43,5.53a30.45,30.45,0,0,0-1.41,5A.12.12,0,0,1,190.79,116.81Z"/><path class="cls-14" d="M134.52,88.63s-1.19-.27-1.36.4,1.08,1.06,1.08,1.06.79.83,1.14.55.83-1,.48-1.53S134.52,88.63,134.52,88.63Z"/><path class="cls-15" d="M161.54,102.22a27.93,27.93,0,0,0,2.61,2.14c.41.16,2.53.27,3,.72s1.63,1.56,1.26,1.65-1.65-1-1.87-1a3.3,3.3,0,0,1-.72,0,21,21,0,0,1,2.69,2.14c.36.53.62,1.26.51,1.35s-.53-.21-.53-.21.54.9.19,1.07-.63-.15-.75-.3-2.1-1.48-2.1-1.48a11.23,11.23,0,0,1,1.37,2.59c.23,1-.21,1.37-.51.92s-2.15-3-2.38-3.14a18.73,18.73,0,0,0-2.12-1.14c-.17,0,2.06,2.35,2.16,2.82s.05,1.05-.2.85a27.48,27.48,0,0,0-3.19-2.76c-.75-.34-2.67-3.33-2-4.53A4.74,4.74,0,0,1,161.54,102.22Z"/><path class="cls-8" d="M195.94,136.9h0l-5.21-.23a.13.13,0,0,1-.11-.13.12.12,0,0,1,.12-.11l5.21.23a.12.12,0,0,1,.12.12A.13.13,0,0,1,195.94,136.9Z"/><path class="cls-8" d="M119.21,116a.13.13,0,0,1-.11-.08l-2.4-6.82a.12.12,0,0,1,.08-.15.12.12,0,0,1,.15.07l2.4,6.82a.12.12,0,0,1-.08.15Z"/><path class="cls-8" d="M140.25,129.66c-.12,0-.15-.08-.22-.86-.34-3.59-1-7.46-1-7.5a.12.12,0,0,1,.09-.14.12.12,0,0,1,.14.1s.59,3.44.95,6.84c0-1.64-.07-4.38-.12-6.4a.12.12,0,0,1,.23,0s.06,2,.09,3.92c.08,4,0,4-.13,4Z"/><path class="cls-8" d="M123.71,59.06A54.17,54.17,0,0,1,115,57.7a.12.12,0,0,1-.09-.15.11.11,0,0,1,.14-.08c.08,0,7.58,1.76,9.61,1.27s2.81-4,2.82-4a.11.11,0,0,1,.14-.09.12.12,0,0,1,.09.14,9.92,9.92,0,0,1-.69,1.89A3.87,3.87,0,0,1,124.74,59,4.85,4.85,0,0,1,123.71,59.06Z"/><path class="cls-8" d="M124.94,58.9a.11.11,0,0,1-.11-.08.11.11,0,0,1,.07-.15,4.76,4.76,0,0,0,.12-2.34,1.48,1.48,0,0,0-1.25-1.16.12.12,0,0,1-.1-.14.11.11,0,0,1,.13-.1,1.78,1.78,0,0,1,1.46,1.36c.15,1,.08,2.49-.29,2.61Z"/><path class="cls-8" d="M148.53,93.59a.12.12,0,0,1-.11-.07c0-.07-2.9-6.45-3.17-7-.1-.17-.57-.77-1.12-1.46a23.67,23.67,0,0,1-2.62-3.63c-.32-.94-1.07-5-1.1-5.14a.12.12,0,0,1,.09-.14.12.12,0,0,1,.14.1s.77,4.18,1.09,5.1A25.38,25.38,0,0,0,144.31,85a18.23,18.23,0,0,1,1.14,1.49c.28.51,3.07,6.71,3.19,7a.13.13,0,0,1-.06.16Z"/><path class="cls-8" d="M339.86,173a5.39,5.39,0,0,1-4.63-3.16c-.68-1.26-1.33-13.7-1.61-25.35-.27-10.92-.29-24.54.53-27,1.54-4.62,6.73-4.6,6.78-4.6a.12.12,0,0,1,.12.12.12.12,0,0,1-.12.11h0c-.19,0-5.08.06-6.55,4.44-.81,2.43-.79,16-.52,26.91.28,11.34.93,24,1.59,25.25,1.4,2.55,3.71,3.6,6.05,2.73a.12.12,0,1,1,.08.22A4.74,4.74,0,0,1,339.86,173Z"/><path class="cls-6" d="M84.33,65.92s16.76,8.69,20.14,16.78S100.06,95.64,93.08,92,78,66.58,84.33,65.92Z"/><path class="cls-19" d="M102.09,134c.54,2.13,1.72,3.7.35,8.8-.43,1.63.88,2.12,1.77,2.63s5,1.08,6.54,2.54,3.37,1.13,4.19,1.42,1.64.26,1.82-.33-.44-1.1-.44-1.1.64.08.77-.46-.17-.55-.17-.55.8-.35.72-.6a1.07,1.07,0,0,0-.4-.44s.48-.15.49-.44-.46-.52-.46-.52.78-.19.4-.55-3.28-1.16-4.73-2-4.48-2.11-4.76-4.8c-.36-3.6-.2-8.36-1.83-8.67S99.86,125.21,102.09,134Z"/><path class="cls-8" d="M96.56,84.62c-12.26-4-25.38,22.6-32.73,27.43-5.39,3.54-15.25,3.25-20.15,2.84a32.65,32.65,0,0,0,2.49,7.9c5.12,9.44,21.19,14.85,28.83,12.61s16.4-29.65,16.4-29.65l7.86,33.47a20.94,20.94,0,0,0,8.65,1.8c6,0,10.59-4.25,10.59-4.25S102.72,86.62,96.56,84.62Z"/><path class="cls-6" d="M63.83,112.05a88.08,88.08,0,0,0,13.41-11.17,33,33,0,0,1-3.89-12.51c-.77-8.51.71-19.09-4.08-22.83,0,0-10-5.63-16.61-1.41-7.28,4.67-19.32,47.2-9,50.76C48.58,115.3,58.44,115.59,63.83,112.05Z"/><path class="cls-8" d="M49.84,82.65S48.58,96,52.55,100.44c4.4,5,8.25,5,10.67,4.94s2.7-6.38,2.67-6.66S54.3,91.48,49.84,82.65Z"/><path class="cls-8" d="M56.2,50S55,56.3,60.91,57.42,58.3,46.77,56.2,50Z"/><path class="cls-19" d="M58.5,62.61a16.88,16.88,0,0,0,1-1.88,15.5,15.5,0,0,0,.52-5.66,7.26,7.26,0,0,1,4,4.1c.19.58.3,3.73.57,4.06C66.24,65.23,57.89,63.36,58.5,62.61Z"/><path class="cls-19" d="M59.89,55.75a1.59,1.59,0,0,1-1.22-.42,2,2,0,0,1-.08-2.18,1.9,1.9,0,0,1,1.11-.46c.13,0-.31-2.38.4-3.8a4.51,4.51,0,0,1,4.39-2.67,5.45,5.45,0,0,1,4.23,2.29c.78,1,.88,3,1,3.9a5.36,5.36,0,0,0,.51,1.74,5,5,0,0,1,.28,3.35,3.88,3.88,0,0,1-3.93,2.71C64.33,60.23,60.74,59.25,59.89,55.75Z"/><path class="cls-8" d="M67.08,55.27h-.19c-.26,0-.43-.13-.46-.27a.11.11,0,1,1,.22-.06s.08.07.26.1A1.18,1.18,0,0,0,68,54.66c.15-.27,0-.62-.23-.87-.66-.85-1-1.27-1-1.52a1.61,1.61,0,0,1,.17-1.2.92.92,0,0,1,.75-.33,4.21,4.21,0,0,1,1.68.1.14.14,0,0,1,0,.17.12.12,0,0,1-.17,0A4.62,4.62,0,0,0,67.7,51a.7.7,0,0,0-.57.25,1.39,1.39,0,0,0-.13,1v0a6.29,6.29,0,0,0,.93,1.41c.43.55.37.92.25,1.13A1.26,1.26,0,0,1,67.08,55.27Z"/><path class="cls-8" d="M63.55,51.5a.17.17,0,0,1-.11-.06.13.13,0,0,1,.05-.16,4.4,4.4,0,0,1,1.88-.46.11.11,0,0,1,.12.11.11.11,0,0,1-.11.12,4.54,4.54,0,0,0-1.78.43Z"/><path class="cls-8" d="M64.67,52.76a.5.5,0,0,1,.59.19c.08.17.21.6,0,.74-.92.55-.91-.63-.88-.72S64.49,52.8,64.67,52.76Z"/><path class="cls-8" d="M63.73,53.37h-.06a.12.12,0,0,1,0-.17,2,2,0,0,1,.93-.75.77.77,0,0,1,1,.43v0a.13.13,0,0,1,0,.17.12.12,0,0,1-.16,0l0,0a.56.56,0,0,0-.72-.33,1.7,1.7,0,0,0-.82.66A.12.12,0,0,1,63.73,53.37Z"/><path class="cls-8" d="M68.75,52.31a.43.43,0,0,0-.4.35c0,.18,0,.63.19.7.83.28.55-.85.51-.93A.31.31,0,0,0,68.75,52.31Z"/><path class="cls-8" d="M67.72,52.86h0a.13.13,0,0,1-.1-.14,1.24,1.24,0,0,1,1-.72.78.78,0,0,1,.76.48.12.12,0,0,1-.08.15.11.11,0,0,1-.15-.07.54.54,0,0,0-.53-.32,1.07,1.07,0,0,0-.75.52A.11.11,0,0,1,67.72,52.86Z"/><path class="cls-20" d="M64.89,54.3s-1.55-.33-2,.18,1.32.87,2.16.71S65.28,54.36,64.89,54.3Z"/><path class="cls-20" d="M69.77,53.84s-1.15-.11-1.31.45,1.1.67,1.64.4S70.05,53.85,69.77,53.84Z"/><path class="cls-8" d="M69,50.1c2.46-1.05-.65-5.83-3.12-6.07a12.49,12.49,0,0,0-3.19,0,15.39,15.39,0,0,0-4.06.52c-2.39.59-3.18,3.11-2.69,5.55s1.88,3.4,2.68,3.45A2.87,2.87,0,0,0,60.19,53a2.58,2.58,0,0,1-.06,1.74,17.66,17.66,0,0,0-.42,2.16c-.21,1.07,0,1.62.09,1.52s.46-2.07.94-2.31a4.56,4.56,0,0,0,1.18-2.45,10.25,10.25,0,0,1,.54-1.85,1.89,1.89,0,0,0,1.9-.61c.37-.41.55-1.48.72-1.52s.5,1.45.72,1.39A4.89,4.89,0,0,0,68,50.31c.42-.41.35-1.64.52-1.7S68.23,50.42,69,50.1Z"/><path class="cls-8" d="M58.34,45.44a5.28,5.28,0,0,1-1.23-3c0-1.64,0-2.48,1.3-2.75s3.06-.48,4.08.31,1.16,3.15.19,4.48C62.1,45.23,58.5,45.53,58.34,45.44Z"/><path class="cls-8" d="M62.69,41.42a.14.14,0,0,1-.08-.19c.49-1.31-1-2.37-1-2.38a.14.14,0,0,1,0-.2.15.15,0,0,1,.2,0s1.67,1.2,1.11,2.72a.15.15,0,0,1-.19.09Z"/><path class="cls-8" d="M57.55,44a2.9,2.9,0,0,0,.36.21.15.15,0,0,0,.2-.08.14.14,0,0,0-.07-.19,3,3,0,0,1-1.44-1.7,1.86,1.86,0,0,1,.09-1.78.14.14,0,0,0,0-.21.15.15,0,0,0-.21,0,2.14,2.14,0,0,0-.15,2.07A3.36,3.36,0,0,0,57.55,44Z"/><path class="cls-14" d="M55.67,88.71c-5.82-5.57-1.5-31.3,3.41-32.92s34.1-4.89,35.33-2.17c.68,1.49-2.76,17.88-2.76,17.88s1.54,12.18,1,13.23C91.41,87.08,62.54,95.3,55.67,88.71Z"/><path class="cls-19" d="M89.08,70.64A8.35,8.35,0,0,0,87.6,68.3c-.82-.77-1.56-4.65-2.21-4.11s.72,3,.4,3.36-6.46-3.74-6.56-3.41,2.93,2.58,2.68,2.88-3.73-2.56-4.06-2.18,3.24,3.23,3.17,3.34-3.6-1.82-3.78-1.51,3.9,2.88,3.84,3.16-2.86-1.17-2.93-.59,4.11,2.31,4.66,2.87,3.65,1.83,4.92,1.17S89.73,71.31,89.08,70.64Z"/><path class="cls-6" d="M102.47,79.41l-13.75-12s-7.58,4.35-6.58,10S93.81,92,99.91,92.57,108.58,85.4,102.47,79.41Z"/><path class="cls-19" d="M78.13,69.4a8.22,8.22,0,0,1,1.47-2.35c.82-.76,1.57-4.64,2.21-4.11s-.71,3-.39,3.37S87.88,62.57,88,62.9,85,65.48,85.29,65.77,89,63.22,89.36,63.6s-3.24,3.23-3.18,3.34,3.61-1.82,3.78-1.51-3.9,2.88-3.84,3.16S89,67.41,89.06,68s-4.12,2.31-4.67,2.87S80.74,72.7,79.47,72,77.47,70.07,78.13,69.4Z"/><path class="cls-19" d="M84.15,136s2.15,4.24,1.33,5.75-1,2.31-.27,3.12,4.45,2.8,5.46,4.76S94.29,151.4,95,152s1-.41,1-.41.58.31.88-.17,0-.59,0-.59.89-.06.89-.34a1.1,1.1,0,0,0-.23-.56s.5,0,.62-.26-.28-.66-.28-.66,1.87.05,1.22-1.55c-.11-.25-1.08,0-2-.38A7.34,7.34,0,0,1,94.62,145c-1.19-1.45-3.16-3.7-3.44-6.48s-.73-6.88-2.2-7.75S83,128,84.15,136Z"/><path class="cls-6" d="M53.51,65.16l.67-.26,9.55,22.64L75.36,67.16s5.52,1.16,7.25,4.34a10.57,10.57,0,0,1,1.31,6S74,103.83,59.53,102.25c-12-1.32-9.9-25.38-8.83-33.49A4.48,4.48,0,0,1,53.51,65.16Z"/><path class="cls-8" d="M52.8,115.94s15.1-32.73,22.89-34,9.8,6.49,10.81,9.66,11,48.4,11,48.4-2.07,1.62-7.25,2.38a22,22,0,0,1-10.3-.83c-1.52-1-3.2-34.14-3.2-34.14s.85,29.67-12,29.13a20,20,0,0,1-18.59-13.73Z"/><path class="cls-13" d="M73.69,129.11l-.06,0a.11.11,0,0,1,0-.16,26.58,26.58,0,0,0,3-11.48c.22-6.69,0-10,0-10a.12.12,0,0,1,.11-.12.12.12,0,0,1,.13.11c0,.18,1.11,18,1.33,20.63a.11.11,0,0,1-.11.12A.12.12,0,0,1,78,128c-.14-1.73-.68-10.3-1-15.84,0,1.43,0,3.18-.11,5.26a26.66,26.66,0,0,1-3.06,11.59A.11.11,0,0,1,73.69,129.11Z"/><path class="cls-13" d="M90.47,108.59a.11.11,0,0,1-.11-.09s-1-4.28-2-8.66S85.13,88,85.11,88a.11.11,0,0,1,.08-.14.12.12,0,0,1,.15.07c0,.08,2.26,7.52,3.27,11.9s2,8.62,2,8.66a.12.12,0,0,1-.09.14Z"/><path class="cls-13" d="M91.4,105.87a.12.12,0,0,1-.12-.12s0-2.93.09-5.86c.2-6,.63-6.28.8-6.39a.24.24,0,0,1,.24,0c.38.2.44,1.77.42,5.21,0,1.14,0,2.41.06,2.84.21-.38.66-1.55,1-2.52,1-2.66,1.37-3.49,1.65-3.5a.18.18,0,0,1,.17.13c.29.74-1.72,7.4-2,8.16a.12.12,0,0,1-.15.07.11.11,0,0,1-.08-.14c.87-2.84,2.07-7.18,2-7.93a24.65,24.65,0,0,0-1.39,3.3A13.63,13.63,0,0,1,93,101.83a.17.17,0,0,1-.17,0c-.18-.09-.21-.53-.19-3.17,0-1.8,0-4.8-.3-5h0c-.6.39-.8,7.6-.79,12a.11.11,0,0,1-.11.12Z"/><path class="cls-13" d="M76.81,106.4a.12.12,0,0,1-.12-.12s0-4.13,0-8.2c.12-8.33.51-8.5.68-8.58a.19.19,0,0,1,.21,0c.58.53.28,5.82-.1,11.68-.07,1-.13,2-.16,2.66.15-.6.35-1.49.56-2.4.4-1.73.89-3.89,1.34-5.59.8-3.07,1-3.06,1.18-3.05s.22.26.24.37c.36,2.36.08,9.19-.44,10.58a.12.12,0,0,1-.22-.08c.51-1.38.78-8.12.43-10.46a.61.61,0,0,0,0-.14c-.45.53-1.63,5.64-2.27,8.42-.68,2.95-.75,3.2-.84,3.26a.15.15,0,0,1-.13,0c-.11-.06-.12-.07.11-3.59.24-3.78.7-10.76.19-11.46-.49.76-.6,10.47-.55,16.53a.11.11,0,0,1-.11.12Z"/><path class="cls-8" d="M61.16,96.75a.15.15,0,0,1-.11,0c-.24-.19-.08-1.34,0-2a22.39,22.39,0,0,1,2.55-7.21.12.12,0,0,1,.2.12,21.79,21.79,0,0,0-2.51,7.13,6.64,6.64,0,0,0-.14,1.76,15.58,15.58,0,0,0,1.09-3.28.11.11,0,0,1,.14-.08.11.11,0,0,1,.09.14c-.25,1-.88,3.3-1.25,3.46Zm0-.22Z"/><path class="cls-8" d="M58.45,96.75h0a.13.13,0,0,1-.11-.13c.28-2.59,3.8-8.17,4-8.4a.13.13,0,0,1,.17,0,.11.11,0,0,1,0,.16c0,.06-3.64,5.77-3.91,8.3A.12.12,0,0,1,58.45,96.75Z"/><path class="cls-4" d="M18.8,162.53s3.87,10.43,5.52,12a7.62,7.62,0,0,0,3.82,1.19,3.74,3.74,0,0,0,4.17-3.7v-7.81Z"/><path class="cls-4" d="M55.47,169.61s3.88,10.44,5.53,12a7.52,7.52,0,0,0,3.81,1.19,3.73,3.73,0,0,0,4.18-3.7v-7.81Z"/><path class="cls-21" d="M78.68,110.85c-6.11-1.69-28.21-4.33-47.32-7-1.83-12.38-5-27.13-9.89-30.89-4.65-3.56-10.68-5.11-15.35-5.77a5.38,5.38,0,0,0-6,6.32l10.52,85.29a7.87,7.87,0,0,0,6.27,6.75l38.78,7.71a44.27,44.27,0,0,0,10.26,1.2h8.5a10.05,10.05,0,0,0,10-10.46c-.54-13.5-.79-38.26-2.39-48.95A4.89,4.89,0,0,0,78.68,110.85Z"/><path class="cls-8" d="M67.78,173.73c-1.77,0-4.41-.4-5.47-2.6-.87-1.79-1-14.75-.76-26.63.28-11.73,1.06-25.32,2.41-28.26a7.78,7.78,0,0,1,5.77-4.4,12.08,12.08,0,0,1,3.81-.17.12.12,0,0,1,.1.14.12.12,0,0,1-.13.1,11.46,11.46,0,0,0-3.74.16,7.52,7.52,0,0,0-5.6,4.27c-1.33,2.91-2.12,17-2.38,28.17-.27,11.55-.11,24.78.73,26.52,1.58,3.26,6.88,2.35,6.93,2.34a.13.13,0,0,1,.14.09.12.12,0,0,1-.1.14A11.13,11.13,0,0,1,67.78,173.73Z"/><path class="cls-4" d="M215.31,10.55s.74-.11,1,.33-.43,2.27-1,2.16S214.56,10.85,215.31,10.55Z"/><path class="cls-4" d="M210.05,20.73c1.82-.07.28-3.41-.21-4.37S206.72,14,206.72,14a13.49,13.49,0,0,1-2.39,2.12c-.09,0-1,.51-1.24.6C203.58,18.51,207.73,20.83,210.05,20.73Z"/><path class="cls-4" d="M207.26,8.63a4.67,4.67,0,0,1-.95,0c-.77,0-.94,1.11-.84,1.83s1.06,1.26,1.06,1.26.42-.93.5-1.19A3.54,3.54,0,0,0,207.26,8.63Z"/><path class="cls-4" d="M207.91,10c-.14.92-.51,2.38-.14,3.14s.35,1,.77.77,6.38,1.2,6.92.77c.16-1,.22-2,.28-2.54.11-1.09,1-2.88.35-4.78S211.51,4,209.68,4.9a4.23,4.23,0,0,0-2.07,3.16,1,1,0,0,1-.16.42A2,2,0,0,1,207.91,10Z"/><path class="cls-8" d="M215.44,14.13c-.6-.35-1.25.18-1.85-.07a9.89,9.89,0,0,0-3.52-1c-1,0-1.11.57-1.53.79s-.41,0-.77-.77,0-2.22.14-3.14a2,2,0,0,0-.46-1.47.4.4,0,0,1-.19.15c-.11.55-.38,1.75-.46,2a1.56,1.56,0,0,1-.39.74,1,1,0,0,0-.37.72,16.51,16.51,0,0,0,0,2.33c.14,1.1,2,4.17,4.39,4.7s4.07-.47,4.74-1.91C215.51,16.55,216.19,14.56,215.44,14.13Z"/><path class="cls-4" d="M211.88,14c-.67-.13-2.23-.33-2.32,0s.24,1.9.7,1.89.58-.46.83-.49.95.1,1.1.51.32.75.59.52.92-1.43.69-1.71A5.6,5.6,0,0,0,211.88,14Z"/><path class="cls-8" d="M216.22,6.89c-1.12-1.66-4.71-2.87-6.54-2a10,10,0,0,0-3.31,3.24c0,.19,0,.41-.06.5.35,0,1.5.37,1.58.76.3-.4.75-1.21,1-1.65.38-.62,1.65-1.72,2.85-.93,0,0,2.67,1.17,3.79.68.21-.09.44.91.77,1.06C216.29,8.15,216.59,7.43,216.22,6.89Z"/><path class="cls-4" d="M212.88,12.33s.61,1,.23,1.42-1.32.14-1.77-.33S212,11.4,212.88,12.33Z"/><path class="cls-8" d="M213.33,13.36a.11.11,0,0,1-.08,0,1.73,1.73,0,0,1-.24-1.95c.53-1.14,1.06-1.63,1.64-1.48a2.24,2.24,0,0,1,1.2.77.13.13,0,0,1,0,.17.14.14,0,0,1-.17,0,1.94,1.94,0,0,0-1.06-.68c-.44-.11-.9.34-1.37,1.35a1.47,1.47,0,0,0,.19,1.68.12.12,0,0,1,0,.17A.11.11,0,0,1,213.33,13.36Z"/><path class="cls-8" d="M211.8,9.91h-.06a5,5,0,0,0-1.89-.29.11.11,0,0,1-.12-.11.12.12,0,0,1,.11-.13,5.19,5.19,0,0,1,2,.32.12.12,0,0,1,.05.16A.11.11,0,0,1,211.8,9.91Z"/><path class="cls-17" d="M216.22,6.89a11.17,11.17,0,0,0-5.2-.84c-3.44.1-4.65,2.09-4.65,2.09a6.78,6.78,0,0,1,.25-2.48,3.84,3.84,0,0,1,1.2-1.58s0-2.23,1.9-2.42c1.49-.16,3.87,1.61,4.82,2.36a4.83,4.83,0,0,0,.73.48A2,2,0,0,1,216.22,6.89Z"/><path class="cls-8" d="M211.46,10.78a.12.12,0,0,1-.12-.12s0-.29-.22-.37a1.16,1.16,0,0,0-1.2.3.11.11,0,0,1-.16,0,.1.1,0,0,1,0-.16,1.36,1.36,0,0,1,1.44-.36.62.62,0,0,1,.39.59A.12.12,0,0,1,211.46,10.78Z"/><path class="cls-8" d="M210.86,10.37a.52.52,0,0,0-.55.26c-.12.2-.21.48.1.62.51.24.76-.28.8-.48A.39.39,0,0,0,210.86,10.37Z"/><path class="cls-8" d="M215.38,11.62a.12.12,0,0,1-.12-.12.42.42,0,0,0-.23-.37,1.14,1.14,0,0,0-1.19.3.12.12,0,0,1-.17,0,.11.11,0,0,1,0-.16,1.4,1.4,0,0,1,1.45-.36.64.64,0,0,1,.39.59A.12.12,0,0,1,215.38,11.62Z"/><path class="cls-8" d="M214.77,11.21a.52.52,0,0,0-.55.26c-.12.2-.2.48.11.63.51.23.75-.29.79-.49A.39.39,0,0,0,214.77,11.21Z"/><path class="cls-8" d="M215.75,12a7.53,7.53,0,0,1-.73,2.23c-.45.62.57,1.26.66,1.06S216.42,12.78,215.75,12Z"/><path class="cls-13" d="M210.2,14.29a2.66,2.66,0,0,1,2.17.17c.92.63.73,1,.37,1s-2.15-.57-2.54-.66S209.9,14.37,210.2,14.29Z"/><path class="cls-9" d="M215.13,21.4l8.42,23.71s13.78,12.43,13.38,17-7.7,6.51-11.12,4.6-13.87-10.53-14.57-13.26C205.72,31.84,215.13,21.4,215.13,21.4Z"/><path class="cls-8" d="M217.31,88.51a.12.12,0,0,1-.12-.1c0-.25-1.06-6.2-.9-7.12,0-.17,0-.87-1.28-3.76-.74-1.7-1.63-3.55-2.09-4.43A16.76,16.76,0,0,0,209.84,70c-1.9-1.68-3.05-2.74-2.81-3.27s2.6-1.44,3.58-1.78a12.19,12.19,0,0,1,3.77-.89.19.19,0,0,1,.14.18c0,.12,0,.31-2.24,1.1-1.06.38-2.14.71-2.15.72a.12.12,0,0,1-.15-.08.12.12,0,0,1,.08-.15,27.11,27.11,0,0,0,4.16-1.56,15.68,15.68,0,0,0-3.53.9c-1.9.66-3.28,1.32-3.44,1.66s1.44,1.84,2.75,3A16.73,16.73,0,0,1,213.13,73c.85,1.62,3.57,7.37,3.4,8.34s.88,7,.89,7a.11.11,0,0,1-.09.14Z"/><path class="cls-8" d="M195.16,67.2a.12.12,0,0,1-.11-.07.12.12,0,0,1,.06-.16c4.53-2,10.58-.36,10.65-.34a.11.11,0,0,1,.08.14.13.13,0,0,1-.15.09c-.06,0-6-1.65-10.49.33Z"/><path class="cls-4" d="M232.3,62.92s6.9,1.46,7.7,1.9,3.67,2.19,3.26,2.77-3.51-1.26-4.17-1.14-1.24.52-1.05,1.21,1.34,1.28,1.28,2-.71.78-1.15.17A6.48,6.48,0,0,0,234.5,68c-1.75-.31-2.44-1.06-3.64-1.94S231.79,62.83,232.3,62.92Z"/><path class="cls-8" d="M216.05,59.25h0a.13.13,0,0,1-.11-.13c0-.09.64-9.34-.26-11.73A12.78,12.78,0,0,1,215,41.6q0-.48,0-1c.07-2.81.65-10.71.65-10.79a.12.12,0,0,1,.13-.11.12.12,0,0,1,.11.12c0,.08-.58,8-.66,10.78,0,.36,0,.71,0,1a12.79,12.79,0,0,0,.68,5.7c.92,2.43.31,11.44.28,11.83A.13.13,0,0,1,216.05,59.25Z"/><path class="cls-8" d="M191.36,52.81a.12.12,0,0,1-.11-.07.12.12,0,0,1,.06-.16c.07,0,6.76-2.77,12.28-5A22.58,22.58,0,0,1,213.77,46a.12.12,0,0,1,.1.13.11.11,0,0,1-.13.1,22.47,22.47,0,0,0-10.06,1.62c-5.52,2.2-12.21,4.94-12.28,5Z"/><path class="cls-8" d="M223.85,53.15a.11.11,0,0,1-.12-.11l-.3-7.92a.12.12,0,0,1,.1-.12.12.12,0,0,1,.14.08l2.07,6.56a.12.12,0,0,1-.08.15.12.12,0,0,1-.15-.08L223.7,46,224,53a.12.12,0,0,1-.12.12Z"/><path class="cls-8" d="M182.46,47.84a.14.14,0,0,1-.11-.07L179.44,40a.14.14,0,0,1,.07-.16.12.12,0,0,1,.15.07l2.91,7.8a.11.11,0,0,1-.06.15Z"/><path class="cls-8" d="M315.89,160.62l-.08,0a.12.12,0,0,1,0-.17c.93-1.16,9.61-13.54,9.7-13.66a.11.11,0,0,1,.16,0,.11.11,0,0,1,0,.16c-.08.13-8.77,12.52-9.71,13.68A.11.11,0,0,1,315.89,160.62Z"/><path class="cls-22" d="M257.83,127.45s-20-1.58-24.09-1.14a66.46,66.46,0,0,1-12.48,0c-1.89-.31-10.08-6.51-9.52-7.64s5.88,2.82,5.88,2.82-5.53-4.85-4.94-6.18,4.19,2.09,5.26,3.36c0,0-4-4.43-3.49-5.57s1.28-.71,2.1.37,5.55,5.58,6,5.41-2.26-3.44-2.38-5.78,1-1.92,1.51-.67a24.56,24.56,0,0,0,1.71,3.67c.69,1.11,3.54,2.4,4.05,1.88s.19-3.17-.19-3.93-.19-2.92,1.32-3.36,1,2.45,1.46,3.66,1.07,3.75,1.83,4.44,5.63.38,9.74-.12,13-3.63,14.91-2.57S257.83,127.45,257.83,127.45Z"/><path class="cls-9" d="M304.5,77s-23.72-14.65-28.22-16.8-4.5-7-8.65-9c-3-1.44-3.84-3.36-6.71-4.25s-3.09-.11-2.52.61,4.2,1.71,4.54,3.12c.24,1-.89,1-1.75.32s-9.73-2.93-11.65-2.17,2.51,1.73,3.08,1.89a38.86,38.86,0,0,1,5.05,1.72c.37.35-7.29-1.44-8.49-1.76s-1.9-.52-2.54-.12,7.87,3.42,8.71,3.9.22.57-.46.55-10.38-.5-11,.7S252,57,253.38,57.54s5.54,3.5,6.06,4.55-5.76,1-7.29,1.86-1.32,1.8-.31,2.27,3.66-.66,6-.35,5.92,2.45,8,3.37,7.59,2.1,9.95,3.55,8.88,9.21,9.5,9.58S304.5,77,304.5,77Z"/><path class="cls-9" d="M216.79,67.79s-3.57,2.87-2.81,4.27c.35.65,4.55-2.63,4.55-2.63Z"/><path class="cls-9" d="M260.88,85.39s-17-4.32-20-6.63-5.63-7.63-7.34-8.74-6.72-4.19-9.18-5-5.24-.54-5.41.25,3.14.77,3.86,1.44c.45.42,2.08.91,2.37,1.35.18.27-.88.6-.88.6s-5.44-1.49-7.53-.83a1.34,1.34,0,0,0-.66,1.42c0,.08,4.8.59,4.6,1.14,0,.05-5-.71-5-.68-.82.52-1,.69-.92,1.06s5.35,1.73,5.22,2.61c-.08.6-4.75,0-5.47.53-1,.81-2.36,2.88-1.66,3s2.71-1,3.12-1,4.52.6,4.92,1,2.91,4.22,6.12,6.23,20.5,13.56,22.4,15.17,9.76,8.86,9.76,8.86Z"/><path class="cls-9" d="M216,70.33l-.28-.66s-4,1.46-4.33,2.39,6.11,0,6.15-.27S216,70.33,216,70.33Z"/><path class="cls-9" d="M229.72,69.41s1.33-.08,1.61-.45-1.66-.88-2.49-1.51-1-2.86.38-2.13a34.5,34.5,0,0,0,5.22,2.51c1.63.47,4.27,8.66,2.24,9.11S229.9,70.61,229.72,69.41Z"/><path class="cls-8" d="M237.58,75.23a.12.12,0,0,1-.09,0,35.06,35.06,0,0,1-2.24-3.26,4.18,4.18,0,0,0-2.15-2.09c-.27-.14-.58-.29-.95-.51-1.64-.94-3.74-2.26-3.76-2.27a.11.11,0,0,1,0-.16.12.12,0,0,1,.16,0s2.12,1.33,3.76,2.27c.37.21.67.37.94.5a4.4,4.4,0,0,1,2.24,2.18A33.94,33.94,0,0,0,237.68,75a.12.12,0,0,1,0,.16A.09.09,0,0,1,237.58,75.23Z"/><polygon class="cls-8" points="255.99 142.13 255.99 187.31 274.5 200.24 353.73 183.55 355.51 140.34 255.99 142.13"/><polygon class="cls-23" points="255.99 142.13 332.92 129.19 355.51 140.34 275.54 154.56 255.99 142.13"/><path class="cls-8" d="M345.07,55.7,258.31,70.44c-3,0-5.48,2.88-5.48,6.41v51.5c0,3.53,1.39,7.18,5.48,6.41L345.07,120c3.28-1.28,5.49-2.88,5.49-6.41V62.11C350.56,58.58,348.09,55.7,345.07,55.7Z"/><polygon class="cls-8" points="267.68 131.73 267.68 145.4 274.15 144.35 274.15 129.98 267.68 131.73"/><polygon class="cls-8" points="330.9 120.08 330.9 133.75 337.38 132.7 337.38 118.33 330.9 120.08"/><path class="cls-13" d="M332,100.33a.18.18,0,0,1-.17-.14A.17.17,0,0,1,332,100l11.6-2.47a.18.18,0,0,1,.08.35L332,100.32Z"/><path class="cls-13" d="M332.3,106.73a.18.18,0,0,1-.17-.14.17.17,0,0,1,.14-.21l11.6-2.47a.18.18,0,0,1,.21.14.18.18,0,0,1-.13.21l-11.61,2.46Z"/><path class="cls-13" d="M332.33,103.61a.18.18,0,0,1-.17-.14.17.17,0,0,1,.13-.21l11.26-2.63a.17.17,0,0,1,.21.14.18.18,0,0,1-.13.21l-11.26,2.62Z"/><path class="cls-13" d="M260,113a.18.18,0,0,1,0-.35l11.61-2.46a.17.17,0,1,1,.07.34L260,113Z"/><path class="cls-13" d="M260.31,119.39a.17.17,0,0,1-.17-.14.18.18,0,0,1,.13-.21l11.61-2.46a.17.17,0,0,1,.21.14.18.18,0,0,1-.14.21l-11.6,2.46Z"/><path class="cls-13" d="M260.34,116.27a.18.18,0,0,1-.18-.13.19.19,0,0,1,.14-.22l11.26-2.62a.18.18,0,0,1,.21.13.18.18,0,0,1-.13.21l-11.26,2.63Z"/><path class="cls-13" d="M274.5,200.42h0a.17.17,0,0,1-.17-.18l1-45.69a.18.18,0,0,1,.18-.17.17.17,0,0,1,.17.18l-1,45.69A.18.18,0,0,1,274.5,200.42Z"/><rect class="cls-7" x="73.25" width="20.05" height="31.99"/><rect class="cls-24" x="12.86" y="1.65" width="29.84" height="47.61"/><path class="cls-2" d="M36.13,143.52s1.91-5.62,7-5.62C43.11,137.9,43.3,143.25,36.13,143.52Z"/><path class="cls-4" d="M28.75,163.74s.28-6.21.83-7.13S30.83,142,31.1,141s1.47,1,1.06,6.72.35,15.88.08,16.24S29,163.74,28.75,163.74Z"/><path class="cls-8" d="M18.28,163H43.79s2.78,13.79-4.69,21.45H24.35S16.11,179.27,18.28,163Z"/><path class="cls-2" d="M31.31,141a10.45,10.45,0,0,1-.54-5.91c.78-2.76,1.06-4,1.06-4A48.75,48.75,0,0,1,33.24,138C33.31,139.93,31.31,141,31.31,141Z"/><path class="cls-2" d="M34,157.53a10.37,10.37,0,0,1,2.86-5.21c2.19-1.86,3.09-2.7,3.09-2.7a50.11,50.11,0,0,1-2.66,6.48C36.31,157.72,34,157.53,34,157.53Z"/><path class="cls-2" d="M27,148.77s-1.32-1.86-.54-3.49,1.05-2.35,1.05-2.35A19.65,19.65,0,0,1,28.94,147C29,148.11,27,148.77,27,148.77Z"/><path class="cls-4" d="M31.89,146.44A17.14,17.14,0,0,1,34,144.6c.9-.6,2.14-1.75,2.67-1.66s-1.95,2-2.83,2.81-2,2-2,2Z"/><path class="cls-4" d="M30.53,150.82a24.32,24.32,0,0,0-2.86-1.94c-1.2-.64-2.86-1.85-3.59-1.78s2.61,2.12,3.77,2.94,2.63,2.09,2.63,2.09Z"/><path class="cls-4" d="M31.89,158.34a26.9,26.9,0,0,1,3.24-2.07c1.36-.67,3.25-2,4.06-1.87s-3,2.27-4.3,3.15-3,2.25-3,2.25Z"/><path class="cls-2" d="M33.71,145.24s5.42-2.43,8.87,1.29C42.58,146.53,38.79,150.31,33.71,145.24Z"/><path class="cls-2" d="M16.76,145.23s5.74-1.53,8.54,2.7C25.3,147.93,21,151.05,16.76,145.23Z"/><path class="cls-2" d="M45.64,153.13s-4,4.41-8.63,2.39C37,155.52,39,150.54,45.64,153.13Z"/><path class="cls-12" d="M235,5.91c-3.86.53-8.77,26.76-8.77,26.76h4.47l2.11-7.7,3.68-.19.88,7.89h5.17S238.89,5.39,235,5.91Zm-2,16s1.1-8.38,2-8.33,1.23,8.51,1.23,8.51Z"/><path class="cls-12" d="M248.55,17.34s3.31-1.88,5.17.08,1.43,6.54,2.74,7.93,3.11-1.61,3.11-1.61l2.05,1.82a14.47,14.47,0,0,1-4.11,2.85c-2,.75-2.51.1-2.51.1s-5.44,4.12-6.87.83a4,4,0,0,1,2.55-5.65,6.89,6.89,0,0,1,2.18-.19s.1-3.33-1.22-3.71a2.28,2.28,0,0,0-2.15.45Z"/><path class="cls-12" d="M280.64,32.49l3.72-.11-.3-9.5s1.43-2.55,3.25-1.65,2.19,11.31,2.19,11.31l4.12-.39s-.4-11.13-1.49-13.06-5.07-2.34-6.58-2-1.64.61-1.64.61l-.4-12.92-4.05-.13Z"/><path class="cls-12" d="M296.82,27.3l2.41-.08.77-6.16s1.18-1.65,2.27-1.07.27,7.34.27,7.34l2.7-.26s.87-7.22.36-8.47-3-1.52-4.05-1.27-1.13.39-1.13.39l1.06-8.38-2.6-.09Z"/><path class="cls-12" d="M311,24l1.78-.53-.65-4.74s.54-1.46,1.46-1.24,1.66,5.4,1.66,5.4l2-.73s-.79-5.54-1.42-6.36-2.56-.53-3.26-.15-.76.52-.76.52l-.88-6.44-1.95.45Z"/><path class="cls-12" d="M274.07,21.38s-3.08,1.66-3.5-.2,2.28-5.58,1.67-8.22-4.41-2.69-4.41-2.69l-.66,3a2.27,2.27,0,0,1,2.08.71c.94,1-.84,3.81-.84,3.81a7,7,0,0,0-2-.94,4,4,0,0,0-5.07,3.57c-.44,3.56,6.34,2.78,6.34,2.78s.12.82,2.21,1.19a14.47,14.47,0,0,0,5-.37Zm-7.55.34s-2.45-.15-2.82-.55c-.66-.69-.55-1.71.34-2.59s3.52.45,3.52.45Z"/></svg>